# xmcd
#
# Track frame offsets:
#	150
#	12208
#	23744
#	32953
#	44234
#	56027
#	69123
#	79930
#	91708
#	101695
#	113896
#	124954
#	134527
#
# Disc length: 1966 seconds
#
# Revision: 1
# Processed by: cddbd v1.5.2PL0 Copyright (c) Steve Scherf et al.
# Submitted via: EasyCDDAExtractor 7.0.6.1
#
DISCID=b007ac0d
DTITLE=Jussi Syren and The Groundbreakers - Shave and haircut
DYEAR=2011
DGENRE=Bluegrass
TTITLE0=100 proof heartaches
TTITLE1=Roses are blooming
TTITLE2=Springtime is near
TTITLE3=Lost
TTITLE4=Southern lady
TTITLE5=Walk slowly darling
TTITLE6=When the flowers bloom in Dixie
TTITLE7=Secret of the waterfall
TTITLE8=Big man
TTITLE9=Forgotten grave
TTITLE10=Down at the Opry
TTITLE11=My tears don't show
TTITLE12=Tragedy of Lake Bodom
EXTD=
EXTT0=
EXTT1=
EXTT2=
EXTT3=
EXTT4=
EXTT5=
EXTT6=
EXTT7=
EXTT8=
EXTT9=
EXTT10=
EXTT11=
EXTT12=
PLAYORDER=
